<svg xmlns="http://www.w3.org/2000/svg" xmlns:xlink="http://www.w3.org/1999/xlink" viewBox="0 0 79.688 85" fill="#fff" fill-rule="evenodd" stroke="#000" stroke-linecap="round" stroke-linejoin="round"><use xlink:href="#A" x="2.344" y="2.5"/><symbol id="A" overflow="visible"><path d="M72.731 39.398c0-4.818-3.415-8.871-8-10.029L75 0H24.11l10.293 29.462c-4.442 1.251-7.714 5.234-7.714 9.959 0 3.474 1.791 6.555 4.514 8.454-1.075 1.482-2.316 2.849-3.725 4.146-2.651 2.409-5.588 4.262-8.764 5.489-2.866-1.876-4.107-5.188-2.985-8.153 4.37-1.297 7.546-5.258 7.546-9.913 0-5.721-4.8-10.353-10.674-10.353-5.899 0-10.698 4.656-10.698 10.376 0 2.826 1.194 5.42 3.104 7.273l-.501.996c-1.6 3.196-3.415 6.81-4.107 10.863-1.385 8.107.884 14.615 6.352 18.298C9.83 78.958 13.221 80 16.875 80c6.281 0 12.657-3.057 18.818-6.022 4.394-2.108 8.931-4.308 13.397-5.373 1.648-.394 3.367-.625 5.182-.88 3.677-.51 7.474-1.042 10.889-2.965 3.988-2.247 6.71-5.999 7.499-10.307.597-3.312 0-6.647-1.528-9.566a10.09 10.09 0 0 0 1.6-5.489zm-4.657 0c0 3.219-2.699 5.837-6.018 5.837s-6.018-2.617-6.018-5.837c0-1.042.287-2.038.788-2.895.191-.324.43-.648.669-.926s.525-.533.836-.764l.024-.023a13.99 13.99 0 0 1 .621-.417s.024 0 .024-.023c.096-.046.191-.116.287-.162.024 0 .048-.023.072-.023.096-.046.215-.093.334-.139s.239-.093.334-.139c.024 0 .048-.023.072-.023.096-.023.191-.069.286-.093.024 0 .072-.023.096-.023l.334-.069h.024l.358-.07c.024 0 .072 0 .096-.023.095 0 .191-.023.286-.023h.119c.119 0 .239-.023.382-.023h.31c.096 0 .167 0 .263.023h.048c.191.023.382.046.573.093 2.722.556 4.8 2.918 4.8 5.744zM30.773 4.632h37.564l-8.621 24.667c-.358.07-.717.185-1.075.301l-9.075-17.95-9.099 17.834c-.358-.116-.74-.185-1.122-.255L30.773 4.632zm17.075 32.751c-.454-2.177-1.6-4.123-3.224-5.559l4.943-9.682 4.991 9.89c-1.481 1.436-2.555 3.266-2.985 5.35h-3.725zm-11.964-3.66l.334-.069h.072c.096-.023.191-.023.287-.046h.096c.096 0 .167-.023.263-.023h.096.358.358.119c.095 0 .167.023.239.023a.22.22 0 0 1 .119.023c.096.023.167.023.263.046.024 0 .048 0 .095.023l.334.07h.024a1.37 1.37 0 0 1 .287.093c.024 0 .048.023.096.023.072.023.167.046.239.093.024 0 .048.023.072.023.095.046.191.07.286.116h.024a1.3 1.3 0 0 1 .311.162h.024c.096.046.191.116.287.162.024 0 .024.023.048.023.095.046.167.116.263.162l.024.023a11.18 11.18 0 0 1 .812.672l.024.023c.239.255.478.533.669.834.621.926.979 2.015.979 3.196 0 3.219-2.699 5.837-6.018 5.837s-6.018-2.617-6.018-5.837c-.024-2.71 1.911-5.003 4.537-5.651zm-23.498-.162c3.319 0 6.018 2.617 6.018 5.837s-2.698 5.837-6.018 5.837-6.018-2.617-6.018-5.837 2.699-5.837 6.018-5.837zm55.546 20.081c-.525 2.965-2.412 5.559-5.182 7.111-2.603 1.459-5.803 1.922-9.17 2.386-1.839.255-3.773.533-5.636.973-4.967 1.181-9.743 3.497-14.376 5.721-5.922 2.849-11.511 5.536-16.693 5.536-2.699 0-5.11-.741-7.403-2.293-5.254-3.521-4.991-10.122-4.37-13.735.573-3.382 2.173-6.555 3.701-9.589.096-.185.167-.347.263-.533.525.185 1.075.324 1.648.417-.907 4.91 1.672 9.983 6.686 12.484l.908.463.979-.347c4.179-1.436 8.048-3.775 11.463-6.902 1.934-1.76 3.582-3.66 4.967-5.721.549.093 1.099.116 1.648.116 4.967 0 9.146-3.312 10.34-7.759h4.012c1.194 4.47 5.373 7.759 10.34 7.759 1.982 0 3.821-.533 5.397-1.436.621 1.737.812 3.544.478 5.35z" fill="#99424f" stroke="none"/></symbol></svg>